<svg xmlns="http://www.w3.org/2000/svg" viewBox="0 0 128 128" style="enable-background:new 0 0 128 128" xml:space="preserve">
<path style="fill:#171617" d="m126.011 33.49-7.234 3.04c.02.059 1.843 4.747.353 8.159L83.609 9.169c3.254-.667 6.9-.039 8.508.431l2.235-7.512c-.53-.176-13.292-3.902-20.662 3.786-5.842 6.061-6.136 17.005-.843 32.499l.608 1.765c-10.292-3.962-26.073-8.022-35.032-.53-7.351 6.178-8.194 17.789-2.588 35.501a321.55 321.55 0 0 0 1.294 3.962c-14.428-7.237-24.602-8.316-31.013-3.295-10.115 7.943-4.783 26.988-4.136 29.146l7.508-2.256c-.765-2.53-1.941-8.296-1.549-13.298l29.758 29.773c-3.254-.059-7.724-.589-13.82-1.824l-1.568 7.689c6.391 1.294 11.605 1.961 15.879 1.961 6.391 0 10.625-1.491 13.311-4.531 5.195-5.884 2.999-15.573-1.588-29.675 19.682 5.198 31.346 4.688 37.325-1.491 7.077-7.296 4.587-20.241-1.019-37.795 19.368 5.256 31.777 4.57 37.796-2.079 6.429-7.099 2.175-17.455 1.998-17.906zM76.846 50.122c1.98 5.864 3.725 11.376 4.96 16.279L59.595 44.179c6.371 1.354 12.957 3.943 17.251 5.943zm-36.11 40.612h.02c1.49 4.113 3.431 8.192 3.705 12.076L23.779 82.513c4.254 1.353 9.763 4.108 16.957 8.221zm4.881 26.506c-.196.235-.47.451-.823.667L9.919 83.034a5.423 5.423 0 0 1 1.039-1.079c.666-.53 1.647-1.02 3.078-1.255l32.659 32.676c-.019 1.706-.352 3.04-1.078 3.864zm1.314-33.461a681.983 681.983 0 0 1-3.607-11.042 87.417 87.417 0 0 1-1.764-6.315l21.152 21.163c-4.529-.786-9.783-2.06-15.781-3.806zm25.033 4.746L40.07 56.614c-.137-3.158.235-5.766 1.117-7.787L79.551 87.23c-1.843.884-4.372 1.315-7.587 1.295zm11.312-5.884-38.09-38.129c1.49-.726 3.254-1.118 5.215-1.216l33.247 33.265c.196 2.354.098 4.394-.372 6.08zm-.059-38.207a424.086 424.086 0 0 1-1.823-5.354l-1.117-3.256c-1.196-3.472-2.058-6.669-2.607-9.532l22.093 22.104c-4.431-.667-9.861-1.922-16.546-3.962zm25.543 4.649L77.022 17.328c.176-2.001.667-3.668 1.49-4.943l35.874 35.893c-1.392.432-3.234.746-5.626.805z" fill="url(#paint3_linear)" stroke="url(#paint4_linear)" stroke-width="2.5"/>
<defs>
<linearGradient id="paint0_linear" x1="3.26667" y1="1" x2="37.8" y2="39.1334" gradientUnits="userSpaceOnUse">
<stop offset="0.259336" stop-color="#FFDB6E"/>
<stop offset="1" stop-color="#FFBC5E"/>
</linearGradient>
<linearGradient id="paint1_linear" x1="29.602" y1="29.21" x2="36.1781" y2="36.4484" gradientUnits="userSpaceOnUse">
<stop offset="0.259336" stop-color="#FFDB6E"/>
<stop offset="1" stop-color="#FFBC5E"/>
</linearGradient>
<linearGradient id="paint2_linear" x1="29.602" y1="29.21" x2="36.1781" y2="36.4484" gradientUnits="userSpaceOnUse">
<stop offset="0.259336" stop-color="#FFDB6E"/>
<stop offset="1" stop-color="#FFBC5E"/>
</linearGradient>
<linearGradient id="paint3_linear" x1="3.26667" y1="1" x2="37.8" y2="39.1334" gradientUnits="userSpaceOnUse">
<stop offset="0.259336" stop-color="#FFDB6E"/>
<stop offset="1" stop-color="#FFBC5E"/>
</linearGradient>
<linearGradient id="paint4_linear" x1="3.26667" y1="1" x2="37.8" y2="39.1334" gradientUnits="userSpaceOnUse">
<stop offset="0.259336" stop-color="#FFDB6E"/>
<stop offset="1" stop-color="#FFBC5E"/>
</linearGradient>
</defs>
</svg>